<?xml version="1.0" encoding="UTF-8" standalone="no"?>
<svg width="240.242mm" height="186.619mm"
 xmlns="http://www.w3.org/2000/svg" xmlns:xlink="http://www.w3.org/1999/xlink"  version="1.2" baseProfile="tiny">
<title>Qt SVG Document</title>
<desc>Generated with Qt</desc>
<defs>
</defs>
<g fill="none" stroke="black" stroke-width="1" fill-rule="evenodd" stroke-linecap="square" stroke-linejoin="bevel" >

<g fill="none" stroke="#000000" stroke-opacity="1" stroke-width="1" stroke-linecap="square" stroke-linejoin="bevel" transform="matrix(1,0,0,1,0,0)"
font-family="Ubuntu" font-size="11" font-weight="400" font-style="normal" 
>
</g>

<g fill="none" stroke="#aeaeae" stroke-opacity="1" stroke-width="0.283465" stroke-linecap="square" stroke-linejoin="bevel" transform="matrix(1,0,0,1,0,0)"
font-family="Ubuntu" font-size="11" font-weight="400" font-style="normal" 
>
<polyline fill="none" vector-effect="none" points="24.2625,528 24.2625,0 " />
<polyline fill="none" vector-effect="none" points="66.825,528 66.825,0 " />
<polyline fill="none" vector-effect="none" points="109.387,528 109.387,0 " />
<polyline fill="none" vector-effect="none" points="151.95,528 151.95,0 " />
<polyline fill="none" vector-effect="none" points="194.512,528 194.512,0 " />
<polyline fill="none" vector-effect="none" points="237.075,528 237.075,0 " />
<polyline fill="none" vector-effect="none" points="279.637,528 279.637,0 " />
<polyline fill="none" vector-effect="none" points="322.2,528 322.2,0 " />
<polyline fill="none" vector-effect="none" points="364.762,528 364.762,0 " />
<polyline fill="none" vector-effect="none" points="407.325,528 407.325,0 " />
<polyline fill="none" vector-effect="none" points="449.887,528 449.887,0 " />
<polyline fill="none" vector-effect="none" points="492.45,528 492.45,0 " />
<polyline fill="none" vector-effect="none" points="535.013,528 535.013,0 " />
<polyline fill="none" vector-effect="none" points="577.575,528 577.575,0 " />
<polyline fill="none" vector-effect="none" points="620.138,528 620.138,0 " />
<polyline fill="none" vector-effect="none" points="662.7,528 662.7,0 " />
<polyline fill="none" vector-effect="none" points="0,506.113 680,506.113 " />
<polyline fill="none" vector-effect="none" points="0,473.05 680,473.05 " />
<polyline fill="none" vector-effect="none" points="0,439.988 680,439.988 " />
<polyline fill="none" vector-effect="none" points="0,406.925 680,406.925 " />
<polyline fill="none" vector-effect="none" points="0,373.863 680,373.863 " />
<polyline fill="none" vector-effect="none" points="0,340.8 680,340.8 " />
<polyline fill="none" vector-effect="none" points="0,307.738 680,307.738 " />
<polyline fill="none" vector-effect="none" points="0,274.675 680,274.675 " />
<polyline fill="none" vector-effect="none" points="0,241.612 680,241.612 " />
<polyline fill="none" vector-effect="none" points="0,208.55 680,208.55 " />
<polyline fill="none" vector-effect="none" points="0,175.487 680,175.487 " />
<polyline fill="none" vector-effect="none" points="0,142.425 680,142.425 " />
<polyline fill="none" vector-effect="none" points="0,109.362 680,109.362 " />
<polyline fill="none" vector-effect="none" points="0,76.3 680,76.3 " />
<polyline fill="none" vector-effect="none" points="0,43.2375 680,43.2375 " />
<polyline fill="none" vector-effect="none" points="0,10.175 680,10.175 " />
</g>

<g fill="#282828" fill-opacity="1" stroke="#282828" stroke-opacity="1" stroke-width="0.566929" stroke-linecap="square" stroke-linejoin="bevel" transform="matrix(1,0,0,1,0,0)"
font-family="Ubuntu" font-size="11" font-weight="400" font-style="normal" 
>
<polyline fill="none" vector-effect="none" points="1.41732,340.8 678.583,340.8 " />
<path vector-effect="none" fill-rule="evenodd" d="M680,340.8 L674.444,342.784 L674.444,338.816 L680,340.8"/>
<polyline fill="none" vector-effect="none" points="322.2,526.583 322.2,1.41732 " />
<path vector-effect="none" fill-rule="evenodd" d="M322.2,0 L320.216,5.55591 L324.184,5.55591 L322.2,0"/>
</g>

<g fill="none" stroke="#aeaeae" stroke-opacity="1" stroke-width="0.283465" stroke-linecap="square" stroke-linejoin="bevel" transform="matrix(1,0,0,1,0,0)"
font-family="Ubuntu" font-size="11" font-weight="400" font-style="normal" 
>
</g>

<g fill="none" stroke="#282828" stroke-opacity="1" stroke-width="0.850394" stroke-linecap="square" stroke-linejoin="bevel" transform="matrix(1,0,0,1,0,0)"
font-family="Ubuntu" font-size="11" font-weight="400" font-style="normal" 
>
<polyline fill="none" vector-effect="none" points="24.2625,339.383 24.2625,342.217 " />
<polyline fill="none" vector-effect="none" points="66.825,339.383 66.825,342.217 " />
<polyline fill="none" vector-effect="none" points="109.387,339.383 109.387,342.217 " />
<polyline fill="none" vector-effect="none" points="151.95,339.383 151.95,342.217 " />
<polyline fill="none" vector-effect="none" points="194.512,339.383 194.512,342.217 " />
<polyline fill="none" vector-effect="none" points="237.075,339.383 237.075,342.217 " />
<polyline fill="none" vector-effect="none" points="279.637,339.383 279.637,342.217 " />
<polyline fill="none" vector-effect="none" points="322.2,339.383 322.2,342.217 " />
<polyline fill="none" vector-effect="none" points="364.762,339.383 364.762,342.217 " />
<polyline fill="none" vector-effect="none" points="407.325,339.383 407.325,342.217 " />
<polyline fill="none" vector-effect="none" points="449.887,339.383 449.887,342.217 " />
<polyline fill="none" vector-effect="none" points="492.45,339.383 492.45,342.217 " />
<polyline fill="none" vector-effect="none" points="535.013,339.383 535.013,342.217 " />
<polyline fill="none" vector-effect="none" points="577.575,339.383 577.575,342.217 " />
<polyline fill="none" vector-effect="none" points="620.138,339.383 620.138,342.217 " />
<polyline fill="none" vector-effect="none" points="320.783,506.113 323.617,506.113 " />
<polyline fill="none" vector-effect="none" points="320.783,473.05 323.617,473.05 " />
<polyline fill="none" vector-effect="none" points="320.783,439.988 323.617,439.988 " />
<polyline fill="none" vector-effect="none" points="320.783,406.925 323.617,406.925 " />
<polyline fill="none" vector-effect="none" points="320.783,373.863 323.617,373.863 " />
<polyline fill="none" vector-effect="none" points="320.783,340.8 323.617,340.8 " />
<polyline fill="none" vector-effect="none" points="320.783,307.738 323.617,307.738 " />
<polyline fill="none" vector-effect="none" points="320.783,274.675 323.617,274.675 " />
<polyline fill="none" vector-effect="none" points="320.783,241.612 323.617,241.612 " />
<polyline fill="none" vector-effect="none" points="320.783,208.55 323.617,208.55 " />
<polyline fill="none" vector-effect="none" points="320.783,175.487 323.617,175.487 " />
<polyline fill="none" vector-effect="none" points="320.783,142.425 323.617,142.425 " />
<polyline fill="none" vector-effect="none" points="320.783,109.362 323.617,109.362 " />
<polyline fill="none" vector-effect="none" points="320.783,76.3 323.617,76.3 " />
<polyline fill="none" vector-effect="none" points="320.783,43.2375 323.617,43.2375 " />
</g>

<g fill="none" stroke="#282828" stroke-opacity="1" stroke-width="0.850394" stroke-linecap="square" stroke-linejoin="bevel" transform="matrix(1,0,0,1,0,0)"
font-family="Sans Serif" font-size="9" font-weight="400" font-style="normal" 
>
<text fill="#282828" fill-opacity="1" stroke="none" xml:space="preserve" x="663.844" y="358.797" font-family="Sans Serif" font-size="9" font-weight="400" font-style="normal" 
 >X</text>
<text fill="#282828" fill-opacity="1" stroke="none" xml:space="preserve" x="306.703" y="18" font-family="Sans Serif" font-size="9" font-weight="400" font-style="normal" 
 >Y</text>
</g>

<g fill="none" stroke="#3c3c3c" stroke-opacity="1" stroke-width="1" stroke-linecap="square" stroke-linejoin="bevel" transform="matrix(1,0,0,1,342.208,348.8)"
font-family="Sans Serif" font-size="9" font-weight="400" font-style="normal" 
>
<text fill="#3c3c3c" fill-opacity="1" stroke="none" xml:space="preserve" x="4" y="15" font-family="Sans Serif" font-size="9" font-weight="400" font-style="normal" 
 >+1.0</text>
</g>

<g fill="none" stroke="#3c3c3c" stroke-opacity="1" stroke-width="1" stroke-linecap="square" stroke-linejoin="bevel" transform="matrix(1,0,0,1,427.333,348.8)"
font-family="Sans Serif" font-size="9" font-weight="400" font-style="normal" 
>
<text fill="#3c3c3c" fill-opacity="1" stroke="none" xml:space="preserve" x="4" y="15" font-family="Sans Serif" font-size="9" font-weight="400" font-style="normal" 
 >+3.0</text>
</g>

<g fill="none" stroke="#3c3c3c" stroke-opacity="1" stroke-width="1" stroke-linecap="square" stroke-linejoin="bevel" transform="matrix(1,0,0,1,512.458,348.8)"
font-family="Sans Serif" font-size="9" font-weight="400" font-style="normal" 
>
<text fill="#3c3c3c" fill-opacity="1" stroke="none" xml:space="preserve" x="4" y="15" font-family="Sans Serif" font-size="9" font-weight="400" font-style="normal" 
 >+5.0</text>
</g>

<g fill="none" stroke="#3c3c3c" stroke-opacity="1" stroke-width="1" stroke-linecap="square" stroke-linejoin="bevel" transform="matrix(1,0,0,1,597.583,348.8)"
font-family="Sans Serif" font-size="9" font-weight="400" font-style="normal" 
>
<text fill="#3c3c3c" fill-opacity="1" stroke="none" xml:space="preserve" x="4" y="15" font-family="Sans Serif" font-size="9" font-weight="400" font-style="normal" 
 >+7.0</text>
</g>

<g fill="none" stroke="#3c3c3c" stroke-opacity="1" stroke-width="1" stroke-linecap="square" stroke-linejoin="bevel" transform="matrix(1,0,0,1,257.083,348.8)"
font-family="Sans Serif" font-size="9" font-weight="400" font-style="normal" 
>
<text fill="#3c3c3c" fill-opacity="1" stroke="none" xml:space="preserve" x="4" y="15" font-family="Sans Serif" font-size="9" font-weight="400" font-style="normal" 
 >−1.0</text>
</g>

<g fill="none" stroke="#3c3c3c" stroke-opacity="1" stroke-width="1" stroke-linecap="square" stroke-linejoin="bevel" transform="matrix(1,0,0,1,171.958,348.8)"
font-family="Sans Serif" font-size="9" font-weight="400" font-style="normal" 
>
<text fill="#3c3c3c" fill-opacity="1" stroke="none" xml:space="preserve" x="4" y="15" font-family="Sans Serif" font-size="9" font-weight="400" font-style="normal" 
 >−3.0</text>
</g>

<g fill="none" stroke="#3c3c3c" stroke-opacity="1" stroke-width="1" stroke-linecap="square" stroke-linejoin="bevel" transform="matrix(1,0,0,1,86.8328,348.8)"
font-family="Sans Serif" font-size="9" font-weight="400" font-style="normal" 
>
<text fill="#3c3c3c" fill-opacity="1" stroke="none" xml:space="preserve" x="4" y="15" font-family="Sans Serif" font-size="9" font-weight="400" font-style="normal" 
 >−5.0</text>
</g>

<g fill="none" stroke="#3c3c3c" stroke-opacity="1" stroke-width="1" stroke-linecap="square" stroke-linejoin="bevel" transform="matrix(1,0,0,1,1.70781,348.8)"
font-family="Sans Serif" font-size="9" font-weight="400" font-style="normal" 
>
<text fill="#3c3c3c" fill-opacity="1" stroke="none" xml:space="preserve" x="4" y="15" font-family="Sans Serif" font-size="9" font-weight="400" font-style="normal" 
 >−7.0</text>
</g>

<g fill="none" stroke="#3c3c3c" stroke-opacity="1" stroke-width="1" stroke-linecap="square" stroke-linejoin="bevel" transform="matrix(1,0,0,1,273.091,495.113)"
font-family="Sans Serif" font-size="9" font-weight="400" font-style="normal" 
>
<text fill="#3c3c3c" fill-opacity="1" stroke="none" xml:space="preserve" x="4" y="15" font-family="Sans Serif" font-size="9" font-weight="400" font-style="normal" 
 >−5.0</text>
</g>

<g fill="none" stroke="#3c3c3c" stroke-opacity="1" stroke-width="1" stroke-linecap="square" stroke-linejoin="bevel" transform="matrix(1,0,0,1,273.091,462.05)"
font-family="Sans Serif" font-size="9" font-weight="400" font-style="normal" 
>
<text fill="#3c3c3c" fill-opacity="1" stroke="none" xml:space="preserve" x="4" y="15" font-family="Sans Serif" font-size="9" font-weight="400" font-style="normal" 
 >−4.0</text>
</g>

<g fill="none" stroke="#3c3c3c" stroke-opacity="1" stroke-width="1" stroke-linecap="square" stroke-linejoin="bevel" transform="matrix(1,0,0,1,273.091,428.988)"
font-family="Sans Serif" font-size="9" font-weight="400" font-style="normal" 
>
<text fill="#3c3c3c" fill-opacity="1" stroke="none" xml:space="preserve" x="4" y="15" font-family="Sans Serif" font-size="9" font-weight="400" font-style="normal" 
 >−3.0</text>
</g>

<g fill="none" stroke="#3c3c3c" stroke-opacity="1" stroke-width="1" stroke-linecap="square" stroke-linejoin="bevel" transform="matrix(1,0,0,1,273.091,395.925)"
font-family="Sans Serif" font-size="9" font-weight="400" font-style="normal" 
>
<text fill="#3c3c3c" fill-opacity="1" stroke="none" xml:space="preserve" x="4" y="15" font-family="Sans Serif" font-size="9" font-weight="400" font-style="normal" 
 >−2.0</text>
</g>

<g fill="none" stroke="#3c3c3c" stroke-opacity="1" stroke-width="1" stroke-linecap="square" stroke-linejoin="bevel" transform="matrix(1,0,0,1,273.091,362.863)"
font-family="Sans Serif" font-size="9" font-weight="400" font-style="normal" 
>
<text fill="#3c3c3c" fill-opacity="1" stroke="none" xml:space="preserve" x="4" y="15" font-family="Sans Serif" font-size="9" font-weight="400" font-style="normal" 
 >−1.0</text>
</g>

<g fill="none" stroke="#3c3c3c" stroke-opacity="1" stroke-width="1" stroke-linecap="square" stroke-linejoin="bevel" transform="matrix(1,0,0,1,273.091,296.738)"
font-family="Sans Serif" font-size="9" font-weight="400" font-style="normal" 
>
<text fill="#3c3c3c" fill-opacity="1" stroke="none" xml:space="preserve" x="4" y="15" font-family="Sans Serif" font-size="9" font-weight="400" font-style="normal" 
 >+1.0</text>
</g>

<g fill="none" stroke="#3c3c3c" stroke-opacity="1" stroke-width="1" stroke-linecap="square" stroke-linejoin="bevel" transform="matrix(1,0,0,1,273.091,263.675)"
font-family="Sans Serif" font-size="9" font-weight="400" font-style="normal" 
>
<text fill="#3c3c3c" fill-opacity="1" stroke="none" xml:space="preserve" x="4" y="15" font-family="Sans Serif" font-size="9" font-weight="400" font-style="normal" 
 >+2.0</text>
</g>

<g fill="none" stroke="#3c3c3c" stroke-opacity="1" stroke-width="1" stroke-linecap="square" stroke-linejoin="bevel" transform="matrix(1,0,0,1,273.091,230.612)"
font-family="Sans Serif" font-size="9" font-weight="400" font-style="normal" 
>
<text fill="#3c3c3c" fill-opacity="1" stroke="none" xml:space="preserve" x="4" y="15" font-family="Sans Serif" font-size="9" font-weight="400" font-style="normal" 
 >+3.0</text>
</g>

<g fill="none" stroke="#3c3c3c" stroke-opacity="1" stroke-width="1" stroke-linecap="square" stroke-linejoin="bevel" transform="matrix(1,0,0,1,273.091,197.55)"
font-family="Sans Serif" font-size="9" font-weight="400" font-style="normal" 
>
<text fill="#3c3c3c" fill-opacity="1" stroke="none" xml:space="preserve" x="4" y="15" font-family="Sans Serif" font-size="9" font-weight="400" font-style="normal" 
 >+4.0</text>
</g>

<g fill="none" stroke="#3c3c3c" stroke-opacity="1" stroke-width="1" stroke-linecap="square" stroke-linejoin="bevel" transform="matrix(1,0,0,1,273.091,164.487)"
font-family="Sans Serif" font-size="9" font-weight="400" font-style="normal" 
>
<text fill="#3c3c3c" fill-opacity="1" stroke="none" xml:space="preserve" x="4" y="15" font-family="Sans Serif" font-size="9" font-weight="400" font-style="normal" 
 >+5.0</text>
</g>

<g fill="none" stroke="#3c3c3c" stroke-opacity="1" stroke-width="1" stroke-linecap="square" stroke-linejoin="bevel" transform="matrix(1,0,0,1,273.091,131.425)"
font-family="Sans Serif" font-size="9" font-weight="400" font-style="normal" 
>
<text fill="#3c3c3c" fill-opacity="1" stroke="none" xml:space="preserve" x="4" y="15" font-family="Sans Serif" font-size="9" font-weight="400" font-style="normal" 
 >+6.0</text>
</g>

<g fill="none" stroke="#3c3c3c" stroke-opacity="1" stroke-width="1" stroke-linecap="square" stroke-linejoin="bevel" transform="matrix(1,0,0,1,273.091,98.3625)"
font-family="Sans Serif" font-size="9" font-weight="400" font-style="normal" 
>
<text fill="#3c3c3c" fill-opacity="1" stroke="none" xml:space="preserve" x="4" y="15" font-family="Sans Serif" font-size="9" font-weight="400" font-style="normal" 
 >+7.0</text>
</g>

<g fill="none" stroke="#3c3c3c" stroke-opacity="1" stroke-width="1" stroke-linecap="square" stroke-linejoin="bevel" transform="matrix(1,0,0,1,273.091,65.3)"
font-family="Sans Serif" font-size="9" font-weight="400" font-style="normal" 
>
<text fill="#3c3c3c" fill-opacity="1" stroke="none" xml:space="preserve" x="4" y="15" font-family="Sans Serif" font-size="9" font-weight="400" font-style="normal" 
 >+8.0</text>
</g>

<g fill="none" stroke="#3c3c3c" stroke-opacity="1" stroke-width="1" stroke-linecap="square" stroke-linejoin="bevel" transform="matrix(1,0,0,1,273.091,32.2375)"
font-family="Sans Serif" font-size="9" font-weight="400" font-style="normal" 
>
<text fill="#3c3c3c" fill-opacity="1" stroke="none" xml:space="preserve" x="4" y="15" font-family="Sans Serif" font-size="9" font-weight="400" font-style="normal" 
 >+9.0</text>
</g>

<g fill="none" stroke="#282828" stroke-opacity="1" stroke-width="0.850394" stroke-linecap="square" stroke-linejoin="bevel" transform="matrix(1,0,0,1,0,0)"
font-family="Sans Serif" font-size="9" font-weight="400" font-style="normal" 
>
</g>

<g fill="#ffffff" fill-opacity="1" stroke="#191970" stroke-opacity="1" stroke-width="0.850394" stroke-linecap="butt" stroke-linejoin="bevel" transform="matrix(1,0,0,1,0,0)"
font-family="Sans Serif" font-size="9" font-weight="400" font-style="normal" 
>
<polyline fill="none" vector-effect="none" points="-13.62,1484.19 3.02,1324.05 " />
<polyline fill="none" vector-effect="none" points="3.02,1324.05 18.62,1183.1 " />
<polyline fill="none" vector-effect="none" points="18.62,1183.1 34.22,1051.02 " />
<polyline fill="none" vector-effect="none" points="34.22,1051.02 48.78,935.774 " />
<polyline fill="none" vector-effect="none" points="48.78,935.774 63.34,828.261 " />
<polyline fill="none" vector-effect="none" points="63.34,828.261 76.86,735.356 " />
<polyline fill="none" vector-effect="none" points="76.86,735.356 90.38,649.124 " />
<polyline fill="none" vector-effect="none" points="90.38,649.124 103.9,569.563 " />
<polyline fill="none" vector-effect="none" points="103.9,569.563 116.9,499.355 " />
<polyline fill="none" vector-effect="none" points="116.9,499.355 128.86,440.212 " />
<polyline fill="none" vector-effect="none" points="128.86,440.212 140.3,388.526 " />
<polyline fill="none" vector-effect="none" points="140.3,388.526 151.22,343.645 " />
<polyline fill="none" vector-effect="none" points="151.22,343.645 161.1,306.789 " />
<polyline fill="none" vector-effect="none" points="161.1,306.789 171.5,271.843 " />
<polyline fill="none" vector-effect="none" points="171.5,271.843 180.86,243.768 " />
<polyline fill="none" vector-effect="none" points="180.86,243.768 190.22,218.89 " />
<polyline fill="none" vector-effect="none" points="190.22,218.89 198.54,199.46 " />
<polyline fill="none" vector-effect="none" points="198.54,199.46 206.86,182.558 " />
<polyline fill="none" vector-effect="none" points="206.86,182.558 214.14,169.841 " />
<polyline fill="none" vector-effect="none" points="214.14,169.841 221.42,159.059 " />
<polyline fill="none" vector-effect="none" points="221.42,159.059 228.7,150.211 " />
<polyline fill="none" vector-effect="none" points="228.7,150.211 234.94,144.167 " />
<polyline fill="none" vector-effect="none" points="234.94,144.167 241.18,139.544 " />
<polyline fill="none" vector-effect="none" points="241.18,139.544 246.38,136.777 " />
<polyline fill="none" vector-effect="none" points="246.38,136.777 251.58,134.997 " />
<polyline fill="none" vector-effect="none" points="251.58,134.997 256.78,134.205 " />
<polyline fill="none" vector-effect="none" points="256.78,134.205 261.98,134.399 " />
<polyline fill="none" vector-effect="none" points="261.98,134.399 267.18,135.58 " />
<polyline fill="none" vector-effect="none" points="267.18,135.58 272.38,137.749 " />
<polyline fill="none" vector-effect="none" points="272.38,137.749 277.58,140.904 " />
<polyline fill="none" vector-effect="none" points="277.58,140.904 283.82,145.993 " />
<polyline fill="none" vector-effect="none" points="283.82,145.993 290.06,152.504 " />
<polyline fill="none" vector-effect="none" points="290.06,152.504 296.3,160.436 " />
<polyline fill="none" vector-effect="none" points="296.3,160.436 303.58,171.486 " />
<polyline fill="none" vector-effect="none" points="303.58,171.486 310.86,184.47 " />
<polyline fill="none" vector-effect="none" points="310.86,184.47 318.14,199.389 " />
<polyline fill="none" vector-effect="none" points="318.14,199.389 326.46,218.809 " />
<polyline fill="none" vector-effect="none" points="326.46,218.809 334.78,240.755 " />
<polyline fill="none" vector-effect="none" points="334.78,240.755 344.14,268.464 " />
<polyline fill="none" vector-effect="none" points="344.14,268.464 353.5,299.372 " />
<polyline fill="none" vector-effect="none" points="353.5,299.372 363.9,337.464 " />
<polyline fill="none" vector-effect="none" points="363.9,337.464 374.3,379.504 " />
<polyline fill="none" vector-effect="none" points="374.3,379.504 385.22,427.895 " />
<polyline fill="none" vector-effect="none" points="385.22,427.895 396.66,483.259 " />
<polyline fill="none" vector-effect="none" points="396.66,483.259 408.1,543.4 " />
<polyline fill="none" vector-effect="none" points="408.1,543.4 420.58,614.457 " />
<polyline fill="none" vector-effect="none" points="420.58,614.457 433.06,691.199 " />
<polyline fill="none" vector-effect="none" points="433.06,691.199 446.58,780.751 " />
<polyline fill="none" vector-effect="none" points="446.58,780.751 460.1,876.976 " />
<polyline fill="none" vector-effect="none" points="460.1,876.976 474.66,988.064 " />
<polyline fill="none" vector-effect="none" points="474.66,988.064 489.22,1106.89 " />
<polyline fill="none" vector-effect="none" points="489.22,1106.89 504.82,1242.79 " />
<polyline fill="none" vector-effect="none" points="504.82,1242.79 520.42,1387.58 " />
<polyline fill="none" vector-effect="none" points="520.42,1387.58 537.06,1551.8 " />
<polyline fill="none" vector-effect="none" points="537.06,1551.8 553.7,1726.14 " />
<polyline fill="none" vector-effect="none" points="553.7,1726.14 571.38,1922.44 " />
<polyline fill="none" vector-effect="none" points="571.38,1922.44 589.06,2130.16 " />
<polyline fill="none" vector-effect="none" points="589.06,2130.16 607.78,2362.52 " />
<polyline fill="none" vector-effect="none" points="607.78,2362.52 626.5,2607.68 " />
<polyline fill="none" vector-effect="none" points="626.5,2607.68 645.22,2865.64 " />
<polyline fill="none" vector-effect="none" points="645.22,2865.64 664.98,3151.8 " />
<polyline fill="none" vector-effect="none" points="664.98,3151.8 684.74,3452.21 " />
<polyline fill="none" vector-effect="none" points="684.74,3452.21 694.1,3599.48 " />
</g>

<g fill="none" stroke="#282828" stroke-opacity="1" stroke-width="0.850394" stroke-linecap="square" stroke-linejoin="bevel" transform="matrix(1,0,0,1,0,0)"
font-family="Sans Serif" font-size="9" font-weight="400" font-style="normal" 
>
</g>
</g>
</svg>
