<?xml version="1.0" encoding="UTF-8" standalone="no"?>
<!-- Created with Inkscape (http://www.inkscape.org/) -->

<svg
   xmlns:dc="http://purl.org/dc/elements/1.1/"
   xmlns:cc="http://creativecommons.org/ns#"
   xmlns:rdf="http://www.w3.org/1999/02/22-rdf-syntax-ns#"
   xmlns:svg="http://www.w3.org/2000/svg"
   xmlns="http://www.w3.org/2000/svg"
   xmlns:sodipodi="http://sodipodi.sourceforge.net/DTD/sodipodi-0.dtd"
   xmlns:inkscape="http://www.inkscape.org/namespaces/inkscape"
   id="svg2"
   version="1.1"
   inkscape:version="0.91 r13725"
   xml:space="preserve"
   width="720"
   height="540"
   viewBox="0 0 720 540"
   sodipodi:docname="ellips.eps.2016_09_04_21_00_38.0.svg"
   inkscape:export-filename="/media/atmaja/teach/calculus/slide/pict/ellips0.png"
   inkscape:export-xdpi="90"
   inkscape:export-ydpi="90"><metadata
     id="metadata8"><rdf:RDF><cc:Work
         rdf:about=""><dc:format>image/svg+xml</dc:format><dc:type
           rdf:resource="http://purl.org/dc/dcmitype/StillImage" /></cc:Work></rdf:RDF></metadata><defs
     id="defs6"><marker
       inkscape:stockid="Arrow1Lstart"
       orient="auto"
       refY="0.0"
       refX="0.0"
       id="marker4570"
       style="overflow:visible"
       inkscape:isstock="true"><path
         id="path4572"
         d="M 0.0,0.0 L 5.0,-5.0 L -12.5,0.0 L 5.0,5.0 L 0.0,0.0 z "
         style="fill-rule:evenodd;stroke:#000000;stroke-width:1pt;stroke-opacity:1;fill:#000000;fill-opacity:1"
         transform="scale(0.8) translate(12.5,0)" /></marker><marker
       inkscape:isstock="true"
       style="overflow:visible;"
       id="marker4536"
       refX="0.0"
       refY="0.0"
       orient="auto"
       inkscape:stockid="Arrow1Lend"><path
         transform="scale(0.8) rotate(180) translate(12.5,0)"
         style="fill-rule:evenodd;stroke:#000000;stroke-width:1pt;stroke-opacity:1;fill:#000000;fill-opacity:1"
         d="M 0.0,0.0 L 5.0,-5.0 L -12.5,0.0 L 5.0,5.0 L 0.0,0.0 z "
         id="path4538" /></marker><marker
       inkscape:stockid="Arrow1Lstart"
       orient="auto"
       refY="0.0"
       refX="0.0"
       id="Arrow1Lstart"
       style="overflow:visible"
       inkscape:isstock="true"><path
         id="path4222"
         d="M 0.0,0.0 L 5.0,-5.0 L -12.5,0.0 L 5.0,5.0 L 0.0,0.0 z "
         style="fill-rule:evenodd;stroke:#000000;stroke-width:1pt;stroke-opacity:1;fill:#000000;fill-opacity:1"
         transform="scale(0.8) translate(12.5,0)" /></marker><marker
       inkscape:stockid="Arrow1Lend"
       orient="auto"
       refY="0.0"
       refX="0.0"
       id="Arrow1Lend"
       style="overflow:visible;"
       inkscape:isstock="true"
       inkscape:collect="always"><path
         id="path4225"
         d="M 0.0,0.0 L 5.0,-5.0 L -12.5,0.0 L 5.0,5.0 L 0.0,0.0 z "
         style="fill-rule:evenodd;stroke:#000000;stroke-width:1pt;stroke-opacity:1;fill:#000000;fill-opacity:1"
         transform="scale(0.8) rotate(180) translate(12.5,0)" /></marker></defs><sodipodi:namedview
     pagecolor="#ffffff"
     bordercolor="#666666"
     borderopacity="1"
     objecttolerance="10"
     gridtolerance="10"
     guidetolerance="10"
     inkscape:pageopacity="0"
     inkscape:pageshadow="2"
     inkscape:window-width="1233"
     inkscape:window-height="776"
     id="namedview4"
     showgrid="false"
     inkscape:zoom="0.87407407"
     inkscape:cx="238.30299"
     inkscape:cy="201.23144"
     inkscape:window-x="47"
     inkscape:window-y="24"
     inkscape:window-maximized="1"
     inkscape:current-layer="g12" /><g
     id="g10"
     inkscape:groupmode="layer"
     inkscape:label="ink_ext_XXXXXX"
     transform="matrix(1.25,0,0,-1.25,0,540)"><g
       id="g12"
       transform="scale(0.1,0.1)"><path
         d="m 572.301,2235.199 4800,0"
         style="fill:none;stroke:#000000;stroke-width:5.22173691;stroke-linecap:butt;stroke-linejoin:miter;stroke-miterlimit:10;stroke-dasharray:167.09558165, 0;stroke-dashoffset:0;stroke-opacity:1;marker-end:url(#marker4536);marker-start:url(#marker4570)"
         id="path18"
         inkscape:connector-curvature="0" /><path
         d="m 2972.301,475.199 0,3520.801"
         style="fill:none;stroke:#000000;stroke-width:5;stroke-linecap:butt;stroke-linejoin:miter;stroke-miterlimit:10;stroke-dasharray:160, 0;stroke-dashoffset:0;stroke-opacity:1;marker-end:url(#Arrow1Lend);marker-start:url(#Arrow1Lstart)"
         id="path22"
         inkscape:connector-curvature="0" /><path
         d="m 780.301,3996 0,-44.65"
         style="fill:none;stroke:#000000;stroke-width:5;stroke-linecap:butt;stroke-linejoin:miter;stroke-miterlimit:10;stroke-dasharray:160, 0;stroke-dashoffset:0;stroke-opacity:1"
         id="path28"
         inkscape:connector-curvature="0" /><path
         d="m 1513.8,2171.199 0,44.653"
         style="fill:none;stroke:#000000;stroke-width:5;stroke-linecap:butt;stroke-linejoin:miter;stroke-miterlimit:10;stroke-dasharray:160, 0;stroke-dashoffset:0;stroke-opacity:1"
         id="path30"
         inkscape:connector-curvature="0" /><path
         d="m 2247.3,2171.199 0,44.653"
         style="fill:none;stroke:#000000;stroke-width:5;stroke-linecap:butt;stroke-linejoin:miter;stroke-miterlimit:10;stroke-dasharray:160, 0;stroke-dashoffset:0;stroke-opacity:1"
         id="path34"
         inkscape:connector-curvature="0" /><path
         d="m 2980.8,2171.199 0,44.653"
         style="fill:none;stroke:#000000;stroke-width:5;stroke-linecap:butt;stroke-linejoin:miter;stroke-miterlimit:10;stroke-dasharray:160, 0;stroke-dashoffset:0;stroke-opacity:1"
         id="path38"
         inkscape:connector-curvature="0" /><path
         d="m 3714.3,2171.199 0,44.653"
         style="fill:none;stroke:#000000;stroke-width:5;stroke-linecap:butt;stroke-linejoin:miter;stroke-miterlimit:10;stroke-dasharray:160, 0;stroke-dashoffset:0;stroke-opacity:1"
         id="path42"
         inkscape:connector-curvature="0" /><path
         d="m 4447.8,2171.199 0,44.653"
         style="fill:none;stroke:#000000;stroke-width:5;stroke-linecap:butt;stroke-linejoin:miter;stroke-miterlimit:10;stroke-dasharray:160, 0;stroke-dashoffset:0;stroke-opacity:1"
         id="path46"
         inkscape:connector-curvature="0" /><path
         d="m 5181.3,2235.6 -2.09,63.99 -6.28,63.87 -10.46,63.62 -14.6,63.26 -18.73,62.78 -22.82,62.17 -26.87,61.45 -30.86,60.6 -34.79,59.66 -38.67,58.58 -42.46,57.41 -46.18,56.11 -49.81,54.72 -53.34,53.22 -56.77,51.61 -60.09,49.92 -63.3,48.12 -66.39,46.24 -69.35,44.26 -72.19,42.2 -74.87,40.06 -77.43,37.85 -79.82,35.56 -82.08,33.2 -84.17,30.79 -86.11,28.3 -87.88,25.78 -89.47,23.2 -90.92,20.57 -92.17,17.91 -93.25,15.22 -94.17,12.48 -94.89,9.74 -95.43,6.97 -95.81,4.18 -95.98,1.4 -95.98,-1.4 -95.81,-4.18 -95.43,-6.97 -94.89,-9.74 -94.17,-12.48 -93.25,-15.22 -92.17,-17.91 -90.92,-20.57 -89.48,-23.2 -87.87,-25.78 -86.11,-28.3 -84.17,-30.79 -82.08,-33.2 -79.82,-35.56 -77.43,-37.85 -74.87,-40.06 -72.19,-42.2 -69.35,-44.26 -66.39,-46.24 -63.3,-48.12 -60.09,-49.92 -56.77,-51.61 -53.34,-53.22 -49.81,-54.72 -46.18,-56.11 -42.461,-57.41 -38.664,-58.58 -34.797,-59.66 -30.863,-60.6 -26.864,-61.45 -22.82,-62.17 -18.731,-62.78 -14.605,-63.26 -10.453,-63.62 -6.277,-63.87 -2.094,-63.99 2.094,-63.99 6.277,-63.87 10.453,-63.62 14.605,-63.26 18.731,-62.78 22.82,-62.17 26.864,-61.45 30.863,-60.6 34.797,-59.66 38.664,-58.58 42.461,-57.41 46.18,-56.11 49.81,-54.72 53.34,-53.22 56.77,-51.61 60.09,-49.92 63.3,-48.12 66.39,-46.24 69.35,-44.26 72.19,-42.2 74.87,-40.06 77.43,-37.85 79.82,-35.556 82.08,-33.203 84.17,-30.786 86.11,-28.308 87.87,-25.777 89.48,-23.2 90.92,-20.574 92.17,-17.91 93.25,-15.211 94.17,-12.488 94.89,-9.739 95.43,-6.964 95.81,-4.188 95.98,-1.394 95.98,1.394 95.81,4.188 95.43,6.964 94.89,9.739 94.17,12.488 93.25,15.211 92.17,17.91 90.92,20.574 89.47,23.2 87.88,25.777 86.11,28.308 84.17,30.786 82.08,33.203 79.82,35.556 77.43,37.85 74.87,40.06 72.19,42.2 69.35,44.26 66.39,46.24 63.3,48.12 60.09,49.92 56.77,51.61 53.34,53.22 49.81,54.72 46.18,56.11 42.46,57.41 38.67,58.58 34.79,59.66 30.86,60.6 26.87,61.45 22.82,62.17 18.73,62.78 14.6,63.26 10.46,63.62 6.28,63.87 2.09,63.99"
         style="fill:none;stroke:#e9382c;stroke-width:24;stroke-linecap:butt;stroke-linejoin:miter;stroke-miterlimit:10;stroke-dasharray:none;stroke-opacity:1"
         id="path90"
         inkscape:connector-curvature="0" /><text
         xml:space="preserve"
         style="font-style:normal;font-variant:normal;font-weight:normal;font-stretch:normal;font-size:128px;line-height:125%;font-family:'Comic Sans MS';-inkscape-font-specification:'Comic Sans MS';letter-spacing:0px;word-spacing:0px;fill:#000000;fill-opacity:1;stroke:none;stroke-width:1px;stroke-linecap:butt;stroke-linejoin:miter;stroke-opacity:1"
         x="5406.644"
         y="-2210.3049"
         id="text4616"
         sodipodi:linespacing="125%"
         transform="scale(1,-1)"><tspan
           sodipodi:role="line"
           id="tspan4618"
           x="5406.644"
           y="-2210.3049">x</tspan></text>
<text
         xml:space="preserve"
         style="font-style:normal;font-variant:normal;font-weight:normal;font-stretch:normal;font-size:128px;line-height:125%;font-family:'Comic Sans MS';-inkscape-font-specification:'Comic Sans MS';letter-spacing:0px;word-spacing:0px;fill:#000000;fill-opacity:1;stroke:none;stroke-width:1px;stroke-linecap:butt;stroke-linejoin:miter;stroke-opacity:1"
         x="3031.7964"
         y="-3940.2031"
         id="text4620"
         sodipodi:linespacing="125%"
         transform="scale(1,-1)"><tspan
           sodipodi:role="line"
           id="tspan4622"
           x="3031.7964"
           y="-3940.2031">y</tspan></text>
<path
         style="fill:none;fill-rule:evenodd;stroke:#000000;stroke-width:8;stroke-linecap:butt;stroke-linejoin:miter;stroke-opacity:1;stroke-miterlimit:4;stroke-dasharray:64,64;stroke-dashoffset:0"
         d="m 1501.017,2242.3729 2498.644,1299.661 466.7797,-1299.661"
         id="path4624"
         inkscape:connector-curvature="0" /><text
         xml:space="preserve"
         style="font-style:normal;font-variant:normal;font-weight:normal;font-stretch:normal;font-size:128px;line-height:125%;font-family:'Comic Sans MS';-inkscape-font-specification:'Comic Sans MS';letter-spacing:0px;word-spacing:0px;fill:#000000;fill-opacity:1;stroke:none;stroke-width:1px;stroke-linecap:butt;stroke-linejoin:miter;stroke-opacity:1"
         x="265.42374"
         y="-1986.1016"
         id="text4628"
         sodipodi:linespacing="125%"
         transform="scale(1,-1)"><tspan
           sodipodi:role="line"
           id="tspan4630"
           x="265.42374"
           y="-1986.1016">A(-a,0)</tspan></text>
<text
         xml:space="preserve"
         style="font-style:normal;font-variant:normal;font-weight:normal;font-stretch:normal;font-size:128px;line-height:125%;font-family:'Comic Sans MS';-inkscape-font-specification:'Comic Sans MS';letter-spacing:0px;word-spacing:0px;fill:#000000;fill-opacity:1;stroke:none;stroke-width:1px;stroke-linecap:butt;stroke-linejoin:miter;stroke-opacity:1"
         x="1464.4069"
         y="-2008.983"
         id="text4632"
         sodipodi:linespacing="125%"
         transform="scale(1,-1)"><tspan
           sodipodi:role="line"
           id="tspan4634"
           x="1464.4069"
           y="-2008.983">F(-c,0)</tspan></text>
<text
         xml:space="preserve"
         style="font-style:normal;font-variant:normal;font-weight:normal;font-stretch:normal;font-size:128px;line-height:125%;font-family:'Comic Sans MS';-inkscape-font-specification:'Comic Sans MS';letter-spacing:0px;word-spacing:0px;fill:#000000;fill-opacity:1;stroke:none;stroke-width:1px;stroke-linecap:butt;stroke-linejoin:miter;stroke-opacity:1"
         x="4182.7119"
         y="-2008.983"
         id="text4636"
         sodipodi:linespacing="125%"
         transform="scale(1,-1)"><tspan
           sodipodi:role="line"
           id="tspan4638"
           x="4182.7119"
           y="-2008.983">G(c,0)</tspan></text>
<text
         xml:space="preserve"
         style="font-style:normal;font-variant:normal;font-weight:normal;font-stretch:normal;font-size:128px;line-height:125%;font-family:'Comic Sans MS';-inkscape-font-specification:'Comic Sans MS';letter-spacing:0px;word-spacing:0px;fill:#000000;fill-opacity:1;stroke:none;stroke-width:1px;stroke-linecap:butt;stroke-linejoin:miter;stroke-opacity:1"
         x="5271.8643"
         y="-2008.983"
         id="text4644"
         sodipodi:linespacing="125%"
         transform="scale(1,-1)"><tspan
           sodipodi:role="line"
           id="tspan4646"
           x="5271.8643"
           y="-2008.983">B(a,0)</tspan></text>
<text
         xml:space="preserve"
         style="font-style:normal;font-variant:normal;font-weight:normal;font-stretch:normal;font-size:128px;line-height:125%;font-family:'Comic Sans MS';-inkscape-font-specification:'Comic Sans MS';letter-spacing:0px;word-spacing:0px;fill:#000000;fill-opacity:1;stroke:none;stroke-width:1px;stroke-linecap:butt;stroke-linejoin:miter;stroke-opacity:1"
         x="2596.9492"
         y="-649.83057"
         id="text4231"
         sodipodi:linespacing="125%"
         transform="scale(1,-1)"><tspan
           sodipodi:role="line"
           id="tspan4233"
           x="2596.9492"
           y="-649.83057">(0,-b)</tspan></text>
<text
         xml:space="preserve"
         style="font-style:normal;font-variant:normal;font-weight:normal;font-stretch:normal;font-size:128px;line-height:125%;font-family:'Comic Sans MS';-inkscape-font-specification:'Comic Sans MS';letter-spacing:0px;word-spacing:0px;fill:#000000;fill-opacity:1;stroke:none;stroke-width:1px;stroke-linecap:butt;stroke-linejoin:miter;stroke-opacity:1"
         x="2629.0168"
         y="-3789.2881"
         id="text4235"
         sodipodi:linespacing="125%"
         transform="scale(1,-1)"><tspan
           sodipodi:role="line"
           id="tspan4237"
           x="2629.0168"
           y="-3789.2881">(0,b)</tspan></text>
<text
         xml:space="preserve"
         style="font-style:normal;font-variant:normal;font-weight:normal;font-stretch:normal;font-size:128px;line-height:125%;font-family:'Comic Sans MS';-inkscape-font-specification:'Comic Sans MS';letter-spacing:0px;word-spacing:0px;fill:#000000;fill-opacity:1;stroke:none;stroke-width:1px;stroke-linecap:butt;stroke-linejoin:miter;stroke-opacity:1"
         x="3910.5762"
         y="-3626.7798"
         id="text4239"
         sodipodi:linespacing="125%"
         transform="scale(1,-1)"><tspan
           sodipodi:role="line"
           id="tspan4241"
           x="3910.5762"
           y="-3626.7798">P(x,y)</tspan></text>
</g></g></svg>