<?xml version="1.0" encoding="UTF-8" standalone="no"?>
<!-- Created with Inkscape (http://www.inkscape.org/) -->

<svg
   xmlns:dc="http://purl.org/dc/elements/1.1/"
   xmlns:cc="http://creativecommons.org/ns#"
   xmlns:rdf="http://www.w3.org/1999/02/22-rdf-syntax-ns#"
   xmlns:svg="http://www.w3.org/2000/svg"
   xmlns="http://www.w3.org/2000/svg"
   xmlns:sodipodi="http://sodipodi.sourceforge.net/DTD/sodipodi-0.dtd"
   xmlns:inkscape="http://www.inkscape.org/namespaces/inkscape"
   id="svg2"
   version="1.1"
   inkscape:version="0.91 r13725"
   xml:space="preserve"
   width="720"
   height="540"
   viewBox="0 0 720 540"
   sodipodi:docname="hyperbol.svg"
   inkscape:export-filename="/media/atmaja/teach/calculus/slide/pict/hyperbol1.png"
   inkscape:export-xdpi="90"
   inkscape:export-ydpi="90"><metadata
     id="metadata8"><rdf:RDF><cc:Work
         rdf:about=""><dc:format>image/svg+xml</dc:format><dc:type
           rdf:resource="http://purl.org/dc/dcmitype/StillImage" /><dc:title></dc:title></cc:Work></rdf:RDF></metadata><defs
     id="defs6"><marker
       inkscape:isstock="true"
       style="overflow:visible"
       id="marker4622"
       refX="0.0"
       refY="0.0"
       orient="auto"
       inkscape:stockid="Arrow1Lstart"><path
         transform="scale(0.8) translate(12.5,0)"
         style="fill-rule:evenodd;stroke:#000000;stroke-width:1pt;stroke-opacity:1;fill:#000000;fill-opacity:1"
         d="M 0.0,0.0 L 5.0,-5.0 L -12.5,0.0 L 5.0,5.0 L 0.0,0.0 z "
         id="path4624" /></marker><marker
       inkscape:isstock="true"
       style="overflow:visible;"
       id="marker4582"
       refX="0.0"
       refY="0.0"
       orient="auto"
       inkscape:stockid="Arrow1Lend"><path
         transform="scale(0.8) rotate(180) translate(12.5,0)"
         style="fill-rule:evenodd;stroke:#000000;stroke-width:1pt;stroke-opacity:1;fill:#000000;fill-opacity:1"
         d="M 0.0,0.0 L 5.0,-5.0 L -12.5,0.0 L 5.0,5.0 L 0.0,0.0 z "
         id="path4584" /></marker><marker
       inkscape:stockid="Arrow1Lstart"
       orient="auto"
       refY="0.0"
       refX="0.0"
       id="Arrow1Lstart"
       style="overflow:visible"
       inkscape:isstock="true"
       inkscape:collect="always"><path
         id="path4268"
         d="M 0.0,0.0 L 5.0,-5.0 L -12.5,0.0 L 5.0,5.0 L 0.0,0.0 z "
         style="fill-rule:evenodd;stroke:#000000;stroke-width:1pt;stroke-opacity:1;fill:#000000;fill-opacity:1"
         transform="scale(0.8) translate(12.5,0)" /></marker><marker
       inkscape:stockid="Arrow1Lend"
       orient="auto"
       refY="0.0"
       refX="0.0"
       id="Arrow1Lend"
       style="overflow:visible;"
       inkscape:isstock="true"
       inkscape:collect="always"><path
         id="path4271"
         d="M 0.0,0.0 L 5.0,-5.0 L -12.5,0.0 L 5.0,5.0 L 0.0,0.0 z "
         style="fill-rule:evenodd;stroke:#000000;stroke-width:1pt;stroke-opacity:1;fill:#000000;fill-opacity:1"
         transform="scale(0.8) rotate(180) translate(12.5,0)" /></marker></defs><sodipodi:namedview
     pagecolor="#ffffff"
     bordercolor="#666666"
     borderopacity="1"
     objecttolerance="10"
     gridtolerance="10"
     guidetolerance="10"
     inkscape:pageopacity="0"
     inkscape:pageshadow="2"
     inkscape:window-width="1233"
     inkscape:window-height="776"
     id="namedview4"
     showgrid="false"
     inkscape:zoom="0.87407407"
     inkscape:cx="265.73383"
     inkscape:cy="221.33322"
     inkscape:window-x="47"
     inkscape:window-y="24"
     inkscape:window-maximized="1"
     inkscape:current-layer="g12"><inkscape:grid
       type="xygrid"
       id="grid4224" /></sodipodi:namedview><g
     id="g10"
     inkscape:groupmode="layer"
     inkscape:label="ink_ext_XXXXXX"
     transform="matrix(1.25,0,0,-1.25,0,540)"><g
       id="g12"
       transform="scale(0.1,0.1)"><path
         d="m 572.301,2235.199 4800,0"
         style="fill:none;stroke:#000000;stroke-width:5.22173691;stroke-linecap:butt;stroke-linejoin:miter;stroke-miterlimit:10;stroke-dasharray:167.09558165, 0;stroke-dashoffset:0;stroke-opacity:1;marker-end:url(#Arrow1Lend);marker-start:url(#Arrow1Lstart)"
         id="path18"
         inkscape:connector-curvature="0" /><path
         d="m 2976.8773,235.199 0,4000"
         style="fill:none;stroke:#000000;stroke-width:5.32941151;stroke-linecap:butt;stroke-linejoin:miter;stroke-miterlimit:10;stroke-dasharray:170.54117029, 0;stroke-dashoffset:0;stroke-opacity:1;marker-end:url(#marker4582);marker-start:url(#marker4622)"
         id="path22"
         inkscape:connector-curvature="0" /><path
         d="m 4917.24,3996 -35.2,-35.56 -34.49,-35.57 -33.77,-35.56 -33.05,-35.56 -32.33,-35.57 -31.61,-35.56 -30.89,-35.57 -30.18,-35.56 -29.46,-35.56 -28.73,-35.57 -28.02,-35.56 -27.3,-35.56 -26.59,-35.57 -25.86,-35.56 -25.15,-35.56 -24.43,-35.57 -23.7,-35.56 -23,-35.57 -22.27,-35.56 -21.55,-35.56 -20.84,-35.57 -20.11,-35.56 -19.4,-35.56 -18.68,-35.57 -17.96,-35.56 -17.25,-35.56 -16.52,-35.57 -15.81,-35.56 -15.08,-35.57 -14.37,-35.56 -13.65,-35.56 -12.94,-35.57 -12.21,-35.56 -11.5,-35.56 -10.77,-35.57 -10.06,-35.56 -9.34,-35.56 -8.62,-35.57 -7.91,-35.56 -7.18,-35.57 -6.47,-35.56 -5.74,-35.56 -5.03,-35.57 -4.31,-35.56 -3.6,-35.56 -2.87,-35.57 -2.16,-35.56 -1.43,-35.56 -0.72,-35.57 0,-35.56 0.72,-35.57 1.43,-35.56 2.16,-35.56 2.87,-35.57 3.6,-35.56 4.31,-35.56 5.03,-35.57 5.74,-35.56 6.47,-35.56 7.18,-35.57 7.91,-35.56 8.62,-35.57 9.34,-35.56 10.06,-35.56 10.77,-35.57 11.5,-35.56 12.21,-35.56 12.94,-35.57 13.65,-35.56 14.37,-35.56 15.08,-35.57 15.81,-35.56 16.52,-35.57 17.25,-35.56 17.96,-35.56 18.68,-35.57 19.4,-35.56 20.11,-35.56 20.84,-35.57 21.55,-35.56 22.27,-35.56 23,-35.57 23.7,-35.56 24.43,-35.57 25.15,-35.56 25.86,-35.563 26.59,-35.562 27.3,-35.567 28.02,-35.562 28.73,-35.563 29.46,-35.562 30.18,-35.566 30.89,-35.563 31.61,-35.562 32.33,-35.567 33.05,-35.562 33.77,-35.563 34.49,-35.562 35.2,-35.567"
         style="fill:none;stroke:#e9382c;stroke-width:20;stroke-linecap:butt;stroke-linejoin:miter;stroke-miterlimit:10;stroke-dasharray:none;stroke-opacity:1"
         id="path90"
         inkscape:connector-curvature="0" /><path
         d="m 1044.36,475.199 35.2,35.567 34.49,35.562 33.77,35.563 33.05,35.562 32.33,35.567 31.61,35.562 30.89,35.563 30.18,35.566 29.46,35.562 28.73,35.563 28.02,35.562 27.3,35.567 26.59,35.562 25.86,35.563 25.15,35.56 24.43,35.57 23.7,35.56 23,35.57 22.27,35.56 21.55,35.56 20.84,35.57 20.11,35.56 19.4,35.56 18.68,35.57 17.96,35.56 17.25,35.56 16.52,35.57 15.81,35.56 15.08,35.57 14.37,35.56 13.65,35.56 12.94,35.57 12.21,35.56 11.5,35.56 10.77,35.57 10.06,35.56 9.34,35.56 8.62,35.57 7.9,35.56 7.19,35.57 6.47,35.56 5.74,35.56 5.03,35.57 4.31,35.56 3.6,35.56 2.87,35.57 2.15,35.56 1.44,35.56 0.72,35.57 0,35.56 -0.72,35.57 -1.44,35.56 -2.15,35.56 -2.87,35.57 -3.6,35.56 -4.31,35.56 -5.03,35.57 -5.74,35.56 -6.47,35.56 -7.19,35.57 -7.9,35.56 -8.62,35.57 -9.34,35.56 -10.06,35.56 -10.77,35.57 -11.5,35.56 -12.21,35.56 -12.94,35.57 -13.65,35.56 -14.37,35.56 -15.08,35.57 -15.81,35.56 -16.52,35.57 -17.25,35.56 -17.96,35.56 -18.68,35.57 -19.4,35.56 -20.11,35.56 -20.84,35.57 -21.55,35.56 -22.27,35.56 -23,35.57 -23.7,35.56 -24.43,35.57 -25.15,35.56 -25.86,35.56 -26.59,35.57 -27.3,35.56 -28.02,35.56 -28.73,35.57 -29.46,35.56 -30.18,35.56 -30.89,35.57 -31.61,35.56 -32.33,35.57 -33.05,35.56 -33.77,35.56 -34.49,35.57 -35.2,35.56"
         style="fill:none;stroke:#e9382c;stroke-width:20;stroke-linecap:butt;stroke-linejoin:miter;stroke-miterlimit:10;stroke-dasharray:none;stroke-opacity:1"
         id="path92"
         inkscape:connector-curvature="0" /><path
         style="fill:none;fill-rule:evenodd;stroke:#000000;stroke-width:8;stroke-linecap:butt;stroke-linejoin:miter;stroke-opacity:1;stroke-miterlimit:4;stroke-dasharray:48,48;stroke-dashoffset:0"
         d="M 1048.4356,4284.348 C 4827.9813,284.76032 4827.9813,284.76032 4827.9813,284.76032"
         id="path4220"
         inkscape:connector-curvature="0" /><path
         style="fill:none;fill-rule:evenodd;stroke:#000000;stroke-width:8;stroke-linecap:butt;stroke-linejoin:miter;stroke-opacity:1;stroke-miterlimit:4;stroke-dasharray:32,64;stroke-dashoffset:0"
         d="M 4880,4240 2960,2240 1040,240"
         id="path4228"
         inkscape:connector-curvature="0" /><path
         style="fill:none;fill-rule:evenodd;stroke:#000000;stroke-width:8;stroke-linecap:butt;stroke-linejoin:miter;stroke-opacity:1;stroke-miterlimit:4;stroke-dasharray:64,64;stroke-dashoffset:0"
         d="M 4480,2240 4560,3600 1520,2240"
         id="path4232"
         inkscape:connector-curvature="0" /><text
         xml:space="preserve"
         style="font-style:normal;font-variant:normal;font-weight:normal;font-stretch:normal;font-size:128px;line-height:125%;font-family:'Comic Sans MS';-inkscape-font-specification:'Comic Sans MS';letter-spacing:0px;word-spacing:0px;fill:#000000;fill-opacity:1;stroke:none;stroke-width:1px;stroke-linecap:butt;stroke-linejoin:miter;stroke-opacity:1"
         x="1456.1605"
         y="-2113.9648"
         id="text4236"
         sodipodi:linespacing="125%"
         transform="scale(1,-1)"><tspan
           sodipodi:role="line"
           id="tspan4238"
           x="1456.1605"
           y="-2113.9648">F</tspan></text>
<text
         xml:space="preserve"
         style="font-style:normal;font-variant:normal;font-weight:normal;font-stretch:normal;font-size:128px;line-height:125%;font-family:'Comic Sans MS';-inkscape-font-specification:'Comic Sans MS';letter-spacing:0px;word-spacing:0px;fill:#000000;fill-opacity:1;stroke:none;stroke-width:1px;stroke-linecap:butt;stroke-linejoin:miter;stroke-opacity:1"
         x="1999.7938"
         y="-2114.5586"
         id="text4240"
         sodipodi:linespacing="125%"
         transform="scale(1,-1)"><tspan
           sodipodi:role="line"
           id="tspan4242"
           x="1999.7938"
           y="-2114.5586">A</tspan></text>
<text
         xml:space="preserve"
         style="font-style:normal;font-variant:normal;font-weight:normal;font-stretch:normal;font-size:128px;line-height:125%;font-family:'Comic Sans MS';-inkscape-font-specification:'Comic Sans MS';letter-spacing:0px;word-spacing:0px;fill:#000000;fill-opacity:1;stroke:none;stroke-width:1px;stroke-linecap:butt;stroke-linejoin:miter;stroke-opacity:1"
         x="2931.7366"
         y="-2112.4336"
         id="text4244"
         sodipodi:linespacing="125%"
         transform="scale(1,-1)"><tspan
           sodipodi:role="line"
           id="tspan4246"
           x="2931.7366"
           y="-2112.4336">0</tspan></text>
<text
         xml:space="preserve"
         style="font-style:normal;font-variant:normal;font-weight:normal;font-stretch:normal;font-size:128px;line-height:125%;font-family:'Comic Sans MS';-inkscape-font-specification:'Comic Sans MS';letter-spacing:0px;word-spacing:0px;fill:#000000;fill-opacity:1;stroke:none;stroke-width:1px;stroke-linecap:butt;stroke-linejoin:miter;stroke-opacity:1"
         x="3902.5103"
         y="-2112.2148"
         id="text4248"
         sodipodi:linespacing="125%"
         transform="scale(1,-1)"><tspan
           sodipodi:role="line"
           id="tspan4250"
           x="3902.5103"
           y="-2112.2148">B</tspan></text>
<text
         xml:space="preserve"
         style="font-style:normal;font-variant:normal;font-weight:normal;font-stretch:normal;font-size:128px;line-height:125%;font-family:'Comic Sans MS';-inkscape-font-specification:'Comic Sans MS';letter-spacing:0px;word-spacing:0px;fill:#000000;fill-opacity:1;stroke:none;stroke-width:1px;stroke-linecap:butt;stroke-linejoin:miter;stroke-opacity:1"
         x="4465.5591"
         y="-2112.8711"
         id="text4252"
         sodipodi:linespacing="125%"
         transform="scale(1,-1)"><tspan
           sodipodi:role="line"
           id="tspan4254"
           x="4465.5591"
           y="-2112.8711">G</tspan></text>
<text
         xml:space="preserve"
         style="font-style:normal;font-variant:normal;font-weight:normal;font-stretch:normal;font-size:128px;line-height:125%;font-family:'Comic Sans MS';-inkscape-font-specification:'Comic Sans MS';letter-spacing:0px;word-spacing:0px;fill:#000000;fill-opacity:1;stroke:none;stroke-width:1px;stroke-linecap:butt;stroke-linejoin:miter;stroke-opacity:1"
         x="5479.2974"
         y="-2201.1387"
         id="text4256"
         sodipodi:linespacing="125%"
         transform="scale(1,-1)"><tspan
           sodipodi:role="line"
           id="tspan4258"
           x="5479.2974"
           y="-2201.1387">X</tspan></text>
<text
         xml:space="preserve"
         style="font-style:normal;font-variant:normal;font-weight:normal;font-stretch:normal;font-size:128px;line-height:125%;font-family:'Comic Sans MS';-inkscape-font-specification:'Comic Sans MS';letter-spacing:0px;word-spacing:0px;fill:#000000;fill-opacity:1;stroke:none;stroke-width:1px;stroke-linecap:butt;stroke-linejoin:miter;stroke-opacity:1"
         x="3061.1731"
         y="-4200.2144"
         id="text4260"
         sodipodi:linespacing="125%"
         transform="scale(1,-1)"><tspan
           sodipodi:role="line"
           id="tspan4262"
           x="3061.1731"
           y="-4200.2144">Y</tspan></text>
<text
         xml:space="preserve"
         style="font-style:normal;font-variant:normal;font-weight:normal;font-stretch:normal;font-size:128px;line-height:125%;font-family:'Comic Sans MS';-inkscape-font-specification:'Comic Sans MS';letter-spacing:0px;word-spacing:0px;fill:#000000;fill-opacity:1;stroke:none;stroke-width:1px;stroke-linecap:butt;stroke-linejoin:miter;stroke-opacity:1"
         x="4750.3193"
         y="-3559.5037"
         id="text4674"
         sodipodi:linespacing="125%"
         transform="scale(1,-1)"><tspan
           sodipodi:role="line"
           id="tspan4676"
           x="4750.3193"
           y="-3559.5037">P(x,y)</tspan></text>
<text
         xml:space="preserve"
         style="font-style:normal;font-variant:normal;font-weight:normal;font-stretch:normal;font-size:128px;line-height:125%;font-family:'Comic Sans MS';-inkscape-font-specification:'Comic Sans MS';letter-spacing:0px;word-spacing:0px;fill:#000000;fill-opacity:1;stroke:none;stroke-width:1px;stroke-linecap:butt;stroke-linejoin:miter;stroke-opacity:1"
         x="4062.8694"
         y="-291.23218"
         id="text4678"
         sodipodi:linespacing="125%"
         transform="scale(1,-1)"><tspan
           sodipodi:role="line"
           id="tspan4680"
           x="4062.8694"
           y="-291.23218">asymptot</tspan></text>
</g></g></svg>