<?xml version="1.0" encoding="UTF-8" standalone="no"?>
<!-- Created with Inkscape (http://www.inkscape.org/) -->

<svg
   xmlns:dc="http://purl.org/dc/elements/1.1/"
   xmlns:cc="http://creativecommons.org/ns#"
   xmlns:rdf="http://www.w3.org/1999/02/22-rdf-syntax-ns#"
   xmlns:svg="http://www.w3.org/2000/svg"
   xmlns="http://www.w3.org/2000/svg"
   xmlns:sodipodi="http://sodipodi.sourceforge.net/DTD/sodipodi-0.dtd"
   xmlns:inkscape="http://www.inkscape.org/namespaces/inkscape"
   id="svg2"
   version="1.1"
   inkscape:version="0.91 r13725"
   xml:space="preserve"
   width="720"
   height="540"
   viewBox="0 0 720 540"
   sodipodi:docname="parabola_simetris_y.svg"
   inkscape:export-filename="/media/atmaja/teach/matematika1/pict/parabola4.png"
   inkscape:export-xdpi="90"
   inkscape:export-ydpi="90"><metadata
     id="metadata8"><rdf:RDF><cc:Work
         rdf:about=""><dc:format>image/svg+xml</dc:format><dc:type
           rdf:resource="http://purl.org/dc/dcmitype/StillImage" /><dc:title></dc:title></cc:Work></rdf:RDF></metadata><defs
     id="defs6"><marker
       inkscape:stockid="Arrow1Mstart"
       orient="auto"
       refY="0.0"
       refX="0.0"
       id="Arrow1Mstart"
       style="overflow:visible"
       inkscape:isstock="true"><path
         id="path4154"
         d="M 0.0,0.0 L 5.0,-5.0 L -12.5,0.0 L 5.0,5.0 L 0.0,0.0 z "
         style="fill-rule:evenodd;stroke:#000000;stroke-width:1pt;stroke-opacity:1;fill:#000000;fill-opacity:1"
         transform="scale(0.4) translate(10,0)" /></marker><marker
       inkscape:stockid="Arrow1Mend"
       orient="auto"
       refY="0.0"
       refX="0.0"
       id="Arrow1Mend"
       style="overflow:visible;"
       inkscape:isstock="true"><path
         id="path4157"
         d="M 0.0,0.0 L 5.0,-5.0 L -12.5,0.0 L 5.0,5.0 L 0.0,0.0 z "
         style="fill-rule:evenodd;stroke:#000000;stroke-width:1pt;stroke-opacity:1;fill:#000000;fill-opacity:1"
         transform="scale(0.4) rotate(180) translate(10,0)" /></marker></defs><sodipodi:namedview
     pagecolor="#ffffff"
     bordercolor="#666666"
     borderopacity="1"
     objecttolerance="10"
     gridtolerance="10"
     guidetolerance="10"
     inkscape:pageopacity="0"
     inkscape:pageshadow="2"
     inkscape:window-width="1319"
     inkscape:window-height="744"
     id="namedview4"
     showgrid="false"
     inkscape:zoom="1"
     inkscape:cx="247.84695"
     inkscape:cy="244.03301"
     inkscape:window-x="47"
     inkscape:window-y="24"
     inkscape:window-maximized="1"
     inkscape:current-layer="g12"
     showguides="false" /><g
     id="g10"
     inkscape:groupmode="layer"
     inkscape:label="ink_ext_XXXXXX"
     transform="matrix(1.25,0,0,-1.25,0,540)"><g
       id="g12"
       transform="scale(0.1,0.1)"><path
         d="m 175.37921,2219.199 3821.92079,0"
         style="fill:none;stroke:#000000;stroke-width:4.65945578;stroke-linecap:butt;stroke-linejoin:miter;stroke-miterlimit:10;stroke-dasharray:149.10259041, 0;stroke-dashoffset:0;stroke-opacity:1"
         id="path18"
         inkscape:connector-curvature="0" /><path
         d="m 843.26379,1775.713 0,1347.7044"
         style="fill:none;stroke:#000000;stroke-width:6.95450687;stroke-linecap:butt;stroke-linejoin:miter;stroke-miterlimit:10;stroke-dasharray:222.54423351, 0;stroke-dashoffset:0;stroke-opacity:1;marker-start:url(#Arrow1Mstart);marker-end:url(#Arrow1Mend)"
         id="path20"
         inkscape:connector-curvature="0" /><path
         d="m 2079.962,1570.6115 0,2445.9987"
         style="fill:none;stroke:#000000;stroke-width:4.16751719;stroke-linecap:butt;stroke-linejoin:miter;stroke-miterlimit:10;stroke-dasharray:133.36054274, 0;stroke-dashoffset:0;stroke-opacity:1"
         id="path22"
         inkscape:connector-curvature="0" /><path
         d="m 3851.8022,1760.1419 -3520.80102,0"
         style="fill:none;stroke:#000000;stroke-width:8;stroke-linecap:butt;stroke-linejoin:miter;stroke-miterlimit:10;stroke-dasharray:32, 64;stroke-dashoffset:0;stroke-opacity:1"
         id="path24"
         inkscape:connector-curvature="0" /><path
         d="m 332.3995,3987.7095 35.56,-70.41 35.57,-68.97 35.56,-67.54 35.56,-66.09 35.57,-64.66 35.56,-63.23 35.57,-61.79 35.56,-60.35 35.56,-58.91 35.57,-57.48 35.56,-56.04 35.56,-54.6 35.57,-53.17 35.56,-51.72 35.56,-50.3 35.57,-48.85 35.56,-47.42 35.57,-45.98 35.56,-44.55 35.56,-43.1 35.57,-41.67 35.56,-40.24 35.56,-38.79 35.57,-37.36 35.56,-35.93 35.56,-34.48 35.57,-33.05 35.56,-31.61 35.57,-30.18 35.56,-28.74 35.56,-27.3 35.57,-25.86 35.56,-24.43 35.56,-22.99 35.57,-21.55 35.56,-20.12 35.56,-18.68 35.57,-17.24 35.56,-15.81 35.57,-14.37 35.56,-12.93 35.56,-11.5 35.57,-10.06 35.56,-8.62 35.56,-7.18 35.57,-5.75 35.56,-4.31 35.56,-2.87 35.57,-1.44 35.56,0 35.57,1.44 35.56,2.87 35.56,4.31 35.57,5.75 35.56,7.18 35.56,8.62 35.57,10.06 35.56,11.5 35.56,12.93 35.57,14.37 35.56,15.81 35.57,17.24 35.56,18.68 35.56,20.12 35.57,21.55 35.56,22.99 35.56,24.43 35.57,25.86 35.56,27.3 35.56,28.74 35.57,30.18 35.56,31.61 35.57,33.05 35.56,34.48 35.56,35.93 35.57,37.36 35.56,38.79 35.56,40.24 35.57,41.67 35.56,43.1 35.56,44.55 35.57,45.98 35.56,47.42 35.57,48.85 35.56,50.3 35.563,51.72 35.562,53.17 35.567,54.6 35.562,56.04 35.563,57.48 35.562,58.91 35.566,60.35 35.563,61.79 35.562,63.23 35.567,64.66 35.562,66.09 35.563,67.54 35.562,68.97 35.567,70.41"
         style="fill:none;stroke:#cc0000;stroke-width:20;stroke-linecap:butt;stroke-linejoin:miter;stroke-miterlimit:10;stroke-dasharray:none;stroke-opacity:1"
         id="path80"
         inkscape:connector-curvature="0" /><text
         xml:space="preserve"
         style="font-style:normal;font-variant:normal;font-weight:normal;font-stretch:normal;font-size:110px;line-height:125%;font-family:Ubuntu;-inkscape-font-specification:Ubuntu;text-align:end;letter-spacing:0px;word-spacing:0px;text-anchor:end;fill:#000000;fill-opacity:1;stroke:none;stroke-width:1px;stroke-linecap:butt;stroke-linejoin:miter;stroke-opacity:1"
         x="4089.085"
         y="-1713.344"
         id="text4480"
         sodipodi:linespacing="125%"
         transform="scale(1,-1)"><tspan
           sodipodi:role="line"
           id="tspan4482"
           x="4089.085"
           y="-1713.344">-P</tspan></text>
<text
         xml:space="preserve"
         style="font-style:normal;font-variant:normal;font-weight:normal;font-stretch:normal;font-size:110px;line-height:125%;font-family:Ubuntu;-inkscape-font-specification:Ubuntu;text-align:end;letter-spacing:0px;word-spacing:0px;text-anchor:end;fill:#000000;fill-opacity:1;stroke:none;stroke-width:1px;stroke-linecap:butt;stroke-linejoin:miter;stroke-opacity:1"
         x="2008"
         y="-3845.4199"
         id="text4484"
         sodipodi:linespacing="125%"
         transform="scale(1,-1)"><tspan
           sodipodi:role="line"
           id="tspan4486"
           x="2008"
           y="-3845.4199">y</tspan></text>
<text
         xml:space="preserve"
         style="font-style:normal;font-variant:normal;font-weight:normal;font-stretch:normal;font-size:110px;line-height:125%;font-family:Ubuntu;-inkscape-font-specification:Ubuntu;text-align:end;letter-spacing:0px;word-spacing:0px;text-anchor:end;fill:#000000;fill-opacity:1;stroke:none;stroke-width:1px;stroke-linecap:butt;stroke-linejoin:miter;stroke-opacity:1"
         x="1135.8857"
         y="-3190.1279"
         id="text4492"
         sodipodi:linespacing="125%"
         transform="scale(1,-1)"><tspan
           sodipodi:role="line"
           id="tspan4494"
           x="1135.8857"
           y="-3190.1279">A(x,y)</tspan></text>
<text
         xml:space="preserve"
         style="font-style:normal;font-variant:normal;font-weight:normal;font-stretch:normal;font-size:110px;line-height:125%;font-family:Ubuntu;-inkscape-font-specification:Ubuntu;text-align:end;letter-spacing:0px;word-spacing:0px;text-anchor:end;fill:#000000;fill-opacity:1;stroke:none;stroke-width:1px;stroke-linecap:butt;stroke-linejoin:miter;stroke-opacity:1"
         x="1552"
         y="-2920"
         id="text4500"
         sodipodi:linespacing="125%"
         transform="scale(1,-1)"><tspan
           sodipodi:role="line"
           id="tspan4502"
           x="1552"
           y="-2920">d<tspan
   style="font-size:110px;baseline-shift:sub"
   id="tspan4504">1</tspan></tspan></text>
<text
         xml:space="preserve"
         style="font-style:normal;font-variant:normal;font-weight:normal;font-stretch:normal;font-size:110px;line-height:125%;font-family:Ubuntu;-inkscape-font-specification:Ubuntu;text-align:end;letter-spacing:0px;word-spacing:0px;text-anchor:end;fill:#000000;fill-opacity:1;stroke:none;stroke-width:1px;stroke-linecap:butt;stroke-linejoin:miter;stroke-opacity:1"
         x="782.2254"
         y="-2456.9705"
         id="text4527"
         sodipodi:linespacing="125%"
         transform="scale(1,-1)"><tspan
           sodipodi:role="line"
           id="tspan4529"
           x="782.2254"
           y="-2456.9705">d<tspan
   style="font-size:110px;baseline-shift:sub"
   id="tspan4531">2</tspan></tspan></text>
<path
         style="fill:none;fill-rule:evenodd;stroke:#000000;stroke-width:8.37310982px;stroke-linecap:butt;stroke-linejoin:miter;stroke-opacity:1"
         d="M 2088.6613,2677.452 848.14284,3116.9746"
         id="path4533"
         inkscape:connector-curvature="0" /><text
         xml:space="preserve"
         style="font-style:normal;font-variant:normal;font-weight:normal;font-stretch:normal;font-size:110px;line-height:125%;font-family:Ubuntu;-inkscape-font-specification:Ubuntu;text-align:end;letter-spacing:0px;word-spacing:0px;text-anchor:end;fill:#000000;fill-opacity:1;stroke:none;stroke-width:1px;stroke-linecap:butt;stroke-linejoin:miter;stroke-opacity:1"
         x="2449.3726"
         y="-2730.5786"
         id="text4535"
         sodipodi:linespacing="125%"
         transform="scale(1,-1)"><tspan
           sodipodi:role="line"
           id="tspan4537"
           x="2449.3726"
           y="-2730.5786">F (P, 0)</tspan></text>
<text
         xml:space="preserve"
         style="font-style:normal;font-variant:normal;font-weight:normal;font-stretch:normal;font-size:110px;line-height:125%;font-family:Ubuntu;-inkscape-font-specification:Ubuntu;text-align:end;letter-spacing:0px;word-spacing:0px;text-anchor:end;fill:#000000;fill-opacity:1;stroke:none;stroke-width:1px;stroke-linecap:butt;stroke-linejoin:miter;stroke-opacity:1"
         x="4080"
         y="-2312"
         id="text4539"
         sodipodi:linespacing="125%"
         transform="scale(1,-1)"><tspan
           sodipodi:role="line"
           id="tspan4541"
           x="4080"
           y="-2312">x</tspan></text>
</g></g></svg>